<mxfile host="app.diagrams.net" modified="2023-09-07T03:55:37.109Z" agent="Mozilla/5.0 (Windows NT 10.0; Win64; x64) AppleWebKit/537.36 (KHTML, like Gecko) Chrome/116.0.0.0 Safari/537.36" etag="RbWKL9EWw5r12l79yXr7" version="21.7.2" type="github">
  <diagram id="C5RBs43oDa-KdzZeNtuy" name="Page-1">
    <mxGraphModel dx="1059" dy="608" grid="1" gridSize="10" guides="1" tooltips="1" connect="1" arrows="1" fold="1" page="1" pageScale="1" pageWidth="827" pageHeight="1169" math="0" shadow="0">
      <root>
        <mxCell id="WIyWlLk6GJQsqaUBKTNV-0" />
        <mxCell id="WIyWlLk6GJQsqaUBKTNV-1" parent="WIyWlLk6GJQsqaUBKTNV-0" />
        <mxCell id="saOVTpoUDjU-9MpaFgr2-45" style="edgeStyle=orthogonalEdgeStyle;rounded=0;orthogonalLoop=1;jettySize=auto;html=1;exitX=0.5;exitY=1;exitDx=0;exitDy=0;" edge="1" parent="WIyWlLk6GJQsqaUBKTNV-1" source="saOVTpoUDjU-9MpaFgr2-2" target="saOVTpoUDjU-9MpaFgr2-4">
          <mxGeometry relative="1" as="geometry" />
        </mxCell>
        <mxCell id="saOVTpoUDjU-9MpaFgr2-2" value="Num1" style="html=1;strokeWidth=2;shape=manualInput;whiteSpace=wrap;rounded=1;size=26;arcSize=11;" vertex="1" parent="WIyWlLk6GJQsqaUBKTNV-1">
          <mxGeometry x="364" y="150" width="100" height="60" as="geometry" />
        </mxCell>
        <mxCell id="saOVTpoUDjU-9MpaFgr2-47" style="edgeStyle=orthogonalEdgeStyle;rounded=0;orthogonalLoop=1;jettySize=auto;html=1;exitX=0;exitY=0.5;exitDx=0;exitDy=0;" edge="1" parent="WIyWlLk6GJQsqaUBKTNV-1" source="saOVTpoUDjU-9MpaFgr2-4">
          <mxGeometry relative="1" as="geometry">
            <mxPoint x="60" y="360" as="targetPoint" />
          </mxGeometry>
        </mxCell>
        <mxCell id="saOVTpoUDjU-9MpaFgr2-4" value="Num2" style="html=1;strokeWidth=2;shape=manualInput;whiteSpace=wrap;rounded=1;size=26;arcSize=11;" vertex="1" parent="WIyWlLk6GJQsqaUBKTNV-1">
          <mxGeometry x="364" y="240" width="100" height="60" as="geometry" />
        </mxCell>
        <mxCell id="saOVTpoUDjU-9MpaFgr2-8" value="" style="edgeStyle=orthogonalEdgeStyle;rounded=0;orthogonalLoop=1;jettySize=auto;html=1;" edge="1" parent="WIyWlLk6GJQsqaUBKTNV-1" source="saOVTpoUDjU-9MpaFgr2-5" target="saOVTpoUDjU-9MpaFgr2-7">
          <mxGeometry relative="1" as="geometry" />
        </mxCell>
        <mxCell id="saOVTpoUDjU-9MpaFgr2-5" value="Operador" style="html=1;strokeWidth=2;shape=manualInput;whiteSpace=wrap;rounded=1;size=26;arcSize=11;" vertex="1" parent="WIyWlLk6GJQsqaUBKTNV-1">
          <mxGeometry x="10" y="360" width="100" height="60" as="geometry" />
        </mxCell>
        <mxCell id="saOVTpoUDjU-9MpaFgr2-10" value="" style="edgeStyle=orthogonalEdgeStyle;rounded=0;orthogonalLoop=1;jettySize=auto;html=1;" edge="1" parent="WIyWlLk6GJQsqaUBKTNV-1" source="saOVTpoUDjU-9MpaFgr2-7" target="saOVTpoUDjU-9MpaFgr2-9">
          <mxGeometry relative="1" as="geometry" />
        </mxCell>
        <mxCell id="saOVTpoUDjU-9MpaFgr2-15" style="edgeStyle=orthogonalEdgeStyle;rounded=0;orthogonalLoop=1;jettySize=auto;html=1;exitX=1;exitY=0.5;exitDx=0;exitDy=0;" edge="1" parent="WIyWlLk6GJQsqaUBKTNV-1" source="saOVTpoUDjU-9MpaFgr2-9">
          <mxGeometry relative="1" as="geometry">
            <mxPoint x="350.33333333333326" y="390.66666666666663" as="targetPoint" />
            <Array as="points">
              <mxPoint x="390" y="390" />
              <mxPoint x="390" y="390" />
            </Array>
          </mxGeometry>
        </mxCell>
        <mxCell id="saOVTpoUDjU-9MpaFgr2-18" value="" style="edgeStyle=orthogonalEdgeStyle;rounded=0;orthogonalLoop=1;jettySize=auto;html=1;" edge="1" parent="WIyWlLk6GJQsqaUBKTNV-1" source="saOVTpoUDjU-9MpaFgr2-7" target="saOVTpoUDjU-9MpaFgr2-17">
          <mxGeometry relative="1" as="geometry" />
        </mxCell>
        <mxCell id="saOVTpoUDjU-9MpaFgr2-28" style="edgeStyle=orthogonalEdgeStyle;rounded=0;orthogonalLoop=1;jettySize=auto;html=1;exitX=0.5;exitY=0;exitDx=0;exitDy=0;entryX=0.5;entryY=0;entryDx=0;entryDy=0;" edge="1" parent="WIyWlLk6GJQsqaUBKTNV-1" source="saOVTpoUDjU-9MpaFgr2-7" target="saOVTpoUDjU-9MpaFgr2-5">
          <mxGeometry relative="1" as="geometry" />
        </mxCell>
        <mxCell id="saOVTpoUDjU-9MpaFgr2-7" value="Suma" style="rhombus;whiteSpace=wrap;html=1;strokeWidth=2;rounded=1;arcSize=11;" vertex="1" parent="WIyWlLk6GJQsqaUBKTNV-1">
          <mxGeometry x="130" y="350" width="130" height="80" as="geometry" />
        </mxCell>
        <mxCell id="saOVTpoUDjU-9MpaFgr2-12" value="" style="edgeStyle=orthogonalEdgeStyle;rounded=0;orthogonalLoop=1;jettySize=auto;html=1;" edge="1" parent="WIyWlLk6GJQsqaUBKTNV-1" source="saOVTpoUDjU-9MpaFgr2-9" target="saOVTpoUDjU-9MpaFgr2-11">
          <mxGeometry relative="1" as="geometry" />
        </mxCell>
        <mxCell id="saOVTpoUDjU-9MpaFgr2-14" value="" style="edgeStyle=orthogonalEdgeStyle;rounded=0;orthogonalLoop=1;jettySize=auto;html=1;" edge="1" parent="WIyWlLk6GJQsqaUBKTNV-1" source="saOVTpoUDjU-9MpaFgr2-11" target="saOVTpoUDjU-9MpaFgr2-13">
          <mxGeometry relative="1" as="geometry" />
        </mxCell>
        <mxCell id="saOVTpoUDjU-9MpaFgr2-22" value="" style="edgeStyle=orthogonalEdgeStyle;rounded=0;orthogonalLoop=1;jettySize=auto;html=1;" edge="1" parent="WIyWlLk6GJQsqaUBKTNV-1" source="saOVTpoUDjU-9MpaFgr2-11" target="saOVTpoUDjU-9MpaFgr2-21">
          <mxGeometry relative="1" as="geometry" />
        </mxCell>
        <mxCell id="saOVTpoUDjU-9MpaFgr2-30" style="edgeStyle=orthogonalEdgeStyle;rounded=0;orthogonalLoop=1;jettySize=auto;html=1;exitX=0.5;exitY=0;exitDx=0;exitDy=0;entryX=0.5;entryY=0;entryDx=0;entryDy=0;" edge="1" parent="WIyWlLk6GJQsqaUBKTNV-1" source="saOVTpoUDjU-9MpaFgr2-11" target="saOVTpoUDjU-9MpaFgr2-5">
          <mxGeometry relative="1" as="geometry" />
        </mxCell>
        <mxCell id="saOVTpoUDjU-9MpaFgr2-11" value="Multiplicación" style="rhombus;whiteSpace=wrap;html=1;strokeWidth=2;rounded=1;arcSize=11;" vertex="1" parent="WIyWlLk6GJQsqaUBKTNV-1">
          <mxGeometry x="440" y="350" width="140" height="80" as="geometry" />
        </mxCell>
        <mxCell id="saOVTpoUDjU-9MpaFgr2-24" value="" style="edgeStyle=orthogonalEdgeStyle;rounded=0;orthogonalLoop=1;jettySize=auto;html=1;" edge="1" parent="WIyWlLk6GJQsqaUBKTNV-1" source="saOVTpoUDjU-9MpaFgr2-13" target="saOVTpoUDjU-9MpaFgr2-23">
          <mxGeometry relative="1" as="geometry" />
        </mxCell>
        <mxCell id="saOVTpoUDjU-9MpaFgr2-31" style="edgeStyle=orthogonalEdgeStyle;rounded=0;orthogonalLoop=1;jettySize=auto;html=1;exitX=0.5;exitY=0;exitDx=0;exitDy=0;entryX=0.5;entryY=0;entryDx=0;entryDy=0;" edge="1" parent="WIyWlLk6GJQsqaUBKTNV-1" source="saOVTpoUDjU-9MpaFgr2-13" target="saOVTpoUDjU-9MpaFgr2-5">
          <mxGeometry relative="1" as="geometry" />
        </mxCell>
        <mxCell id="saOVTpoUDjU-9MpaFgr2-13" value="División" style="rhombus;whiteSpace=wrap;html=1;strokeWidth=2;rounded=1;arcSize=11;" vertex="1" parent="WIyWlLk6GJQsqaUBKTNV-1">
          <mxGeometry x="610" y="350" width="140" height="80" as="geometry" />
        </mxCell>
        <mxCell id="saOVTpoUDjU-9MpaFgr2-16" value="" style="edgeStyle=orthogonalEdgeStyle;rounded=0;orthogonalLoop=1;jettySize=auto;html=1;exitX=1;exitY=0.5;exitDx=0;exitDy=0;" edge="1" parent="WIyWlLk6GJQsqaUBKTNV-1" source="saOVTpoUDjU-9MpaFgr2-7" target="saOVTpoUDjU-9MpaFgr2-9">
          <mxGeometry relative="1" as="geometry">
            <mxPoint x="350.33333333333326" y="390.66666666666663" as="targetPoint" />
            <mxPoint x="260" y="390" as="sourcePoint" />
            <Array as="points" />
          </mxGeometry>
        </mxCell>
        <mxCell id="saOVTpoUDjU-9MpaFgr2-20" value="" style="edgeStyle=orthogonalEdgeStyle;rounded=0;orthogonalLoop=1;jettySize=auto;html=1;" edge="1" parent="WIyWlLk6GJQsqaUBKTNV-1" source="saOVTpoUDjU-9MpaFgr2-9" target="saOVTpoUDjU-9MpaFgr2-19">
          <mxGeometry relative="1" as="geometry" />
        </mxCell>
        <mxCell id="saOVTpoUDjU-9MpaFgr2-29" style="edgeStyle=orthogonalEdgeStyle;rounded=0;orthogonalLoop=1;jettySize=auto;html=1;exitX=0.5;exitY=0;exitDx=0;exitDy=0;entryX=0.5;entryY=0;entryDx=0;entryDy=0;" edge="1" parent="WIyWlLk6GJQsqaUBKTNV-1" source="saOVTpoUDjU-9MpaFgr2-9" target="saOVTpoUDjU-9MpaFgr2-5">
          <mxGeometry relative="1" as="geometry" />
        </mxCell>
        <mxCell id="saOVTpoUDjU-9MpaFgr2-9" value="Resta" style="rhombus;whiteSpace=wrap;html=1;strokeWidth=2;rounded=1;arcSize=11;" vertex="1" parent="WIyWlLk6GJQsqaUBKTNV-1">
          <mxGeometry x="280" y="350" width="140" height="80" as="geometry" />
        </mxCell>
        <mxCell id="saOVTpoUDjU-9MpaFgr2-39" style="edgeStyle=orthogonalEdgeStyle;rounded=0;orthogonalLoop=1;jettySize=auto;html=1;exitX=0.5;exitY=1;exitDx=0;exitDy=0;entryX=0.5;entryY=0;entryDx=0;entryDy=0;entryPerimeter=0;" edge="1" parent="WIyWlLk6GJQsqaUBKTNV-1" source="saOVTpoUDjU-9MpaFgr2-17" target="saOVTpoUDjU-9MpaFgr2-34">
          <mxGeometry relative="1" as="geometry" />
        </mxCell>
        <mxCell id="saOVTpoUDjU-9MpaFgr2-17" value="Resultado = Num1 + Num2" style="whiteSpace=wrap;html=1;strokeWidth=2;rounded=1;arcSize=0;" vertex="1" parent="WIyWlLk6GJQsqaUBKTNV-1">
          <mxGeometry x="135" y="480" width="120" height="60" as="geometry" />
        </mxCell>
        <mxCell id="saOVTpoUDjU-9MpaFgr2-36" style="edgeStyle=orthogonalEdgeStyle;rounded=0;orthogonalLoop=1;jettySize=auto;html=1;exitX=0.5;exitY=1;exitDx=0;exitDy=0;entryX=0.5;entryY=0;entryDx=0;entryDy=0;entryPerimeter=0;" edge="1" parent="WIyWlLk6GJQsqaUBKTNV-1" source="saOVTpoUDjU-9MpaFgr2-19" target="saOVTpoUDjU-9MpaFgr2-34">
          <mxGeometry relative="1" as="geometry" />
        </mxCell>
        <mxCell id="saOVTpoUDjU-9MpaFgr2-19" value="Resultado = Num1 - Num2" style="whiteSpace=wrap;html=1;strokeWidth=2;rounded=1;arcSize=11;" vertex="1" parent="WIyWlLk6GJQsqaUBKTNV-1">
          <mxGeometry x="290" y="480" width="120" height="60" as="geometry" />
        </mxCell>
        <mxCell id="saOVTpoUDjU-9MpaFgr2-37" style="edgeStyle=orthogonalEdgeStyle;rounded=0;orthogonalLoop=1;jettySize=auto;html=1;exitX=0.5;exitY=1;exitDx=0;exitDy=0;" edge="1" parent="WIyWlLk6GJQsqaUBKTNV-1" source="saOVTpoUDjU-9MpaFgr2-21" target="saOVTpoUDjU-9MpaFgr2-34">
          <mxGeometry relative="1" as="geometry" />
        </mxCell>
        <mxCell id="saOVTpoUDjU-9MpaFgr2-21" value="Resultado = Num1 x Num2" style="whiteSpace=wrap;html=1;strokeWidth=2;rounded=1;arcSize=11;" vertex="1" parent="WIyWlLk6GJQsqaUBKTNV-1">
          <mxGeometry x="450" y="480" width="120" height="60" as="geometry" />
        </mxCell>
        <mxCell id="saOVTpoUDjU-9MpaFgr2-40" style="edgeStyle=orthogonalEdgeStyle;rounded=0;orthogonalLoop=1;jettySize=auto;html=1;exitX=0.5;exitY=1;exitDx=0;exitDy=0;entryX=0.5;entryY=0;entryDx=0;entryDy=0;entryPerimeter=0;" edge="1" parent="WIyWlLk6GJQsqaUBKTNV-1" source="saOVTpoUDjU-9MpaFgr2-23" target="saOVTpoUDjU-9MpaFgr2-34">
          <mxGeometry relative="1" as="geometry" />
        </mxCell>
        <mxCell id="saOVTpoUDjU-9MpaFgr2-23" value="Resultado = Num1 / Num2" style="whiteSpace=wrap;html=1;strokeWidth=2;rounded=1;arcSize=11;" vertex="1" parent="WIyWlLk6GJQsqaUBKTNV-1">
          <mxGeometry x="620" y="480" width="120" height="60" as="geometry" />
        </mxCell>
        <mxCell id="saOVTpoUDjU-9MpaFgr2-32" value="Fin" style="strokeWidth=2;html=1;shape=mxgraph.flowchart.terminator;whiteSpace=wrap;" vertex="1" parent="WIyWlLk6GJQsqaUBKTNV-1">
          <mxGeometry x="50" y="620" width="100" height="40" as="geometry" />
        </mxCell>
        <mxCell id="saOVTpoUDjU-9MpaFgr2-42" style="edgeStyle=orthogonalEdgeStyle;rounded=0;orthogonalLoop=1;jettySize=auto;html=1;exitX=0.5;exitY=1;exitDx=0;exitDy=0;exitPerimeter=0;entryX=0.508;entryY=0.27;entryDx=0;entryDy=0;entryPerimeter=0;" edge="1" parent="WIyWlLk6GJQsqaUBKTNV-1" source="saOVTpoUDjU-9MpaFgr2-33" target="saOVTpoUDjU-9MpaFgr2-2">
          <mxGeometry relative="1" as="geometry" />
        </mxCell>
        <mxCell id="saOVTpoUDjU-9MpaFgr2-33" value="Inicio" style="strokeWidth=2;html=1;shape=mxgraph.flowchart.start_1;whiteSpace=wrap;" vertex="1" parent="WIyWlLk6GJQsqaUBKTNV-1">
          <mxGeometry x="364" y="70" width="100" height="60" as="geometry" />
        </mxCell>
        <mxCell id="saOVTpoUDjU-9MpaFgr2-41" style="edgeStyle=orthogonalEdgeStyle;rounded=0;orthogonalLoop=1;jettySize=auto;html=1;exitX=0;exitY=0.5;exitDx=0;exitDy=0;exitPerimeter=0;entryX=1;entryY=0.5;entryDx=0;entryDy=0;entryPerimeter=0;" edge="1" parent="WIyWlLk6GJQsqaUBKTNV-1" source="saOVTpoUDjU-9MpaFgr2-34" target="saOVTpoUDjU-9MpaFgr2-32">
          <mxGeometry relative="1" as="geometry" />
        </mxCell>
        <mxCell id="saOVTpoUDjU-9MpaFgr2-34" value="Resultado" style="strokeWidth=2;html=1;shape=mxgraph.flowchart.display;whiteSpace=wrap;" vertex="1" parent="WIyWlLk6GJQsqaUBKTNV-1">
          <mxGeometry x="364" y="610" width="100" height="60" as="geometry" />
        </mxCell>
      </root>
    </mxGraphModel>
  </diagram>
</mxfile>
